<?xml version="1.0" encoding="utf-8"?>
<!-- Svg Vector Icons : http://www.onlinewebfonts.com/icon -->
<!DOCTYPE svg PUBLIC "-//W3C//DTD SVG 1.1//EN" "http://www.w3.org/Graphics/SVG/1.1/DTD/svg11.dtd">
<svg version="1.1" xmlns="http://www.w3.org/2000/svg" xmlns:xlink="http://www.w3.org/1999/xlink" x="0px" y="0px" viewBox="0 0 1000 1000" enable-background="new 0 0 1000 1000" xml:space="preserve">
<metadata> Svg Vector Icons : http://www.onlinewebfonts.com/icon </metadata>
<g><path d="M500,239.2c-143.8,0-260.8,117-260.8,260.8c0,143.8,117,260.8,260.8,260.8c143.8,0,260.8-117,260.8-260.8C760.8,356.2,643.8,239.2,500,239.2z M500,198.2c17.4,0,31.6-14.1,31.6-31.6v-125c0-17.4-14.1-31.6-31.6-31.6s-31.6,14.1-31.6,31.6v125C468.4,184.1,482.6,198.2,500,198.2z M500,801.8c-17.4,0-31.6,14.1-31.6,31.6v125c0,17.4,14.1,31.6,31.6,31.6c17.4,0,31.6-14.1,31.6-31.6v-125C531.6,815.9,517.4,801.8,500,801.8z M958.4,468.4h-125c-17.4,0-31.6,14.1-31.6,31.6c0,17.4,14.1,31.6,31.6,31.6h125c17.4,0,31.6-14.1,31.6-31.6C990,482.6,975.9,468.4,958.4,468.4z M198.2,500c0-17.4-14.1-31.6-31.6-31.6h-125C24.1,468.4,10,482.6,10,500c0,17.4,14.1,31.6,31.6,31.6h125C184.1,531.6,198.2,517.4,198.2,500z M736.7,294.9c8.1,0,16.2-3.1,22.3-9.3l88.4-88.4c12.3-12.3,12.3-32.3,0-44.7c-12.3-12.3-32.3-12.3-44.7,0L714.3,241c-12.3,12.3-12.3,32.3,0,44.7C720.5,291.9,728.6,294.9,736.7,294.9z M242.8,712.5l-88.4,88.4c-12.3,12.3-12.3,32.3,0,44.7c6.2,6.2,14.3,9.3,22.3,9.3c8.1,0,16.2-3.1,22.3-9.3l88.4-88.4c12.3-12.3,12.3-32.3,0-44.7C275.2,700.2,255.2,700.2,242.8,712.5z M759,712.5c-12.3-12.3-32.3-12.3-44.7,0c-12.3,12.3-12.3,32.3,0,44.7l88.4,88.4c6.2,6.2,14.3,9.2,22.3,9.2c8.1,0,16.2-3.1,22.3-9.2c12.3-12.3,12.3-32.3,0-44.7L759,712.5z M242.8,285.7c6.2,6.2,14.3,9.3,22.3,9.3c8.1,0,16.2-3.1,22.3-9.3c12.3-12.3,12.3-32.3,0-44.7l-88.4-88.4c-12.3-12.3-32.3-12.3-44.7,0c-12.3,12.3-12.3,32.3,0,44.7L242.8,285.7z"/></g>
</svg>